<?xml version="1.0" encoding="UTF-8"?>
<svg xmlns="http://www.w3.org/2000/svg" xmlns:xlink="http://www.w3.org/1999/xlink" viewBox="0 0 48 48" width="48px" height="48px">
<g id="surface2594614">
<path style=" stroke:none;fill-rule:nonzero;fill:rgb(40.000001%,40.000001%,40.000001%);fill-opacity:1;" d="M 23.859375 8.5 C 17.503906 8.5 11.601562 8.953125 8.234375 9.65625 C 8.226562 9.65625 8.21875 9.660156 8.210938 9.664062 C 5.675781 10.230469 3.285156 12.046875 2.78125 14.894531 C 2.78125 14.898438 2.78125 14.902344 2.78125 14.90625 C 2.394531 17.199219 2 20.191406 2 24.5 C 2 28.800781 2.394531 31.710938 2.882812 34.125 C 3.398438 36.890625 5.734375 38.761719 8.308594 39.335938 C 8.324219 39.339844 8.335938 39.34375 8.347656 39.347656 C 11.863281 40.039062 17.597656 40.5 23.949219 40.5 C 30.304688 40.5 36.042969 40.039062 39.558594 39.347656 C 39.570312 39.34375 39.582031 39.339844 39.59375 39.335938 C 42.132812 38.769531 44.523438 36.953125 45.023438 34.105469 C 45.027344 34.097656 45.027344 34.089844 45.027344 34.082031 C 45.410156 31.742188 45.902344 28.753906 46 24.4375 C 46 24.429688 46 24.417969 46 24.40625 C 46 20.085938 45.503906 17.078125 45.023438 14.695312 C 44.511719 11.925781 42.175781 10.050781 39.59375 9.472656 C 39.554688 9.464844 39.515625 9.457031 39.476562 9.449219 C 36.046875 8.96875 30.210938 8.5 23.855469 8.5 Z M 20.15625 17 C 20.527344 16.996094 20.910156 17.082031 21.269531 17.285156 L 29.875 22.144531 C 31.324219 22.964844 31.324219 25.035156 29.875 25.855469 L 21.269531 30.714844 C 19.832031 31.527344 18.035156 30.5 18.035156 28.863281 L 18.035156 19.136719 C 18.035156 17.910156 19.046875 17.023438 20.15625 17 Z M 20.15625 17 "/>
</g>
</svg>
